HIERARCHY
ROOT Hips
{
	OFFSET -3.160375 99.459145 -13.130705
	CHANNELS 6 Xposition Yposition Zposition Xrotation Yrotation Zrotation
	JOINT LeftUpLeg
	{
		OFFSET 8.910001 -6.269997 0.000000
		CHANNELS 6 Xposition Yposition Zposition Xrotation Yrotation Zrotation
		JOINT LeftLeg
		{
			OFFSET 0.000000 -44.878643 0.000000
			CHANNELS 6 Xposition Yposition Zposition Xrotation Yrotation Zrotation
			JOINT LeftFoot
			{
				OFFSET 0.000000 -40.700958 0.000000
				CHANNELS 6 Xposition Yposition Zposition Xrotation Yrotation Zrotation
				JOINT LeftToeBase
				{
					OFFSET 0.000009 -6.262317 12.954720
					CHANNELS 6 Xposition Yposition Zposition Xrotation Yrotation Zrotation
					JOINT LeftToeBaseEnd
					{
						OFFSET 0.000000 0.000000 8.000000
						CHANNELS 6 Xposition Yposition Zposition Xrotation Yrotation Zrotation
						End Site
						{
							OFFSET 0.000000 8.000000 0.000000
						}
					}
				}
			}
		}
	}
	JOINT RightUpLeg
	{
		OFFSET -8.910001 -6.269997 0.000000
		CHANNELS 6 Xposition Yposition Zposition Xrotation Yrotation Zrotation
		JOINT RightLeg
		{
			OFFSET -0.000003 -44.878643 0.000439
			CHANNELS 6 Xposition Yposition Zposition Xrotation Yrotation Zrotation
			JOINT RightFoot
			{
				OFFSET 0.000003 -40.700958 0.000000
				CHANNELS 6 Xposition Yposition Zposition Xrotation Yrotation Zrotation
				JOINT RightToeBase
				{
					OFFSET 0.000001 -6.262317 12.954749
					CHANNELS 6 Xposition Yposition Zposition Xrotation Yrotation Zrotation
					JOINT RightToeBaseEnd
					{
						OFFSET 0.000670 0.000000 8.000000
						CHANNELS 6 Xposition Yposition Zposition Xrotation Yrotation Zrotation
						End Site
						{
							OFFSET 0.000000 8.000000 0.000000
						}
					}
				}
			}
		}
	}
	JOINT Spine
	{
		OFFSET 0.000000 7.000000 0.000000
		CHANNELS 6 Xposition Yposition Zposition Xrotation Yrotation Zrotation
		JOINT Spine1
		{
			OFFSET 0.000000 12.666664 0.000000
			CHANNELS 3 Xrotation Yrotation Zrotation
			JOINT Spine2
			{
				OFFSET 0.000000 12.666672 0.000000
				CHANNELS 3 Xrotation Yrotation Zrotation
				JOINT LeftShoulder
				{
					OFFSET 7.000000 14.255219 0.000000
					CHANNELS 6 Xposition Yposition Zposition Xrotation Yrotation Zrotation
					JOINT LeftArm
					{
						OFFSET 10.707251 0.000000 0.000000
						CHANNELS 6 Xposition Yposition Zposition Xrotation Yrotation Zrotation
						JOINT LeftForeArm
						{
							OFFSET 27.305466 -0.000351 0.000000
							CHANNELS 6 Xposition Yposition Zposition Xrotation Yrotation Zrotation
							JOINT LeftHand
							{
								OFFSET 26.697144 -0.000336 0.000000
								CHANNELS 6 Xposition Yposition Zposition Xrotation Yrotation Zrotation
								JOINT LeftHandThumb1
								{
									OFFSET 4.348747 -0.798553 4.282434
									CHANNELS 6 Xposition Yposition Zposition Xrotation Yrotation Zrotation
									JOINT LeftHandThumb2
									{
										OFFSET 2.512581 -0.536133 0.707455
										CHANNELS 6 Xposition Yposition Zposition Xrotation Yrotation Zrotation
										JOINT LeftHandThumb3
										{
											OFFSET 2.543144 -0.000031 0.000010
											CHANNELS 6 Xposition Yposition Zposition Xrotation Yrotation Zrotation
											JOINT LeftHandThumb4
											{
												OFFSET 2.666748 -0.000015 -0.000009
												CHANNELS 6 Xposition Yposition Zposition Xrotation Yrotation Zrotation
												End Site
												{
													OFFSET 0.000023 2.666748 0.000000
												}
											}
										}
									}
								}
								JOINT LeftHandIndex1
								{
									OFFSET 8.821976 0.199615 3.471669
									CHANNELS 6 Xposition Yposition Zposition Xrotation Yrotation Zrotation
									JOINT LeftHandIndex2
									{
										OFFSET 4.225319 -0.000061 -0.000262
										CHANNELS 6 Xposition Yposition Zposition Xrotation Yrotation Zrotation
										JOINT LeftHandIndex3
										{
											OFFSET 2.652313 -0.000015 -0.092786
											CHANNELS 6 Xposition Yposition Zposition Xrotation Yrotation Zrotation
											JOINT LeftHandIndex4
											{
												OFFSET 1.953445 0.000000 -0.136721
												CHANNELS 6 Xposition Yposition Zposition Xrotation Yrotation Zrotation
												End Site
												{
													OFFSET -0.000008 1.958221 0.000002
												}
											}
										}
									}
								}
								JOINT LeftHandMiddle1
								{
									OFFSET 8.809883 0.500778 1.304685
									CHANNELS 6 Xposition Yposition Zposition Xrotation Yrotation Zrotation
									JOINT LeftHandMiddle2
									{
										OFFSET 4.863251 -0.000061 0.000000
										CHANNELS 6 Xposition Yposition Zposition Xrotation Yrotation Zrotation
										JOINT LeftHandMiddle3
										{
											OFFSET 2.765236 -0.000031 -0.000173
											CHANNELS 6 Xposition Yposition Zposition Xrotation Yrotation Zrotation
											JOINT LeftHandMiddle4
											{
												OFFSET 2.005630 -0.000031 -0.000251
												CHANNELS 6 Xposition Yposition Zposition Xrotation Yrotation Zrotation
												End Site
												{
													OFFSET 0.000023 2.005630 0.000000
												}
											}
										}
									}
								}
								JOINT LeftHandRing1
								{
									OFFSET 8.893768 0.379807 -0.793159
									CHANNELS 6 Xposition Yposition Zposition Xrotation Yrotation Zrotation
									JOINT LeftHandRing2
									{
										OFFSET 4.537758 -0.000061 -0.000282
										CHANNELS 6 Xposition Yposition Zposition Xrotation Yrotation Zrotation
										JOINT LeftHandRing3
										{
											OFFSET 2.304527 -0.000031 -0.000287
											CHANNELS 6 Xposition Yposition Zposition Xrotation Yrotation Zrotation
											JOINT LeftHandRing4
											{
												OFFSET 1.923347 -0.000031 -0.000360
												CHANNELS 6 Xposition Yposition Zposition Xrotation Yrotation Zrotation
												End Site
												{
													OFFSET 0.000023 1.923340 0.000000
												}
											}
										}
									}
								}
								JOINT LeftHandPinky1
								{
									OFFSET 8.882271 -0.313141 -2.490356
									CHANNELS 6 Xposition Yposition Zposition Xrotation Yrotation Zrotation
									JOINT LeftHandPinky2
									{
										OFFSET 3.044098 -0.000046 0.000000
										CHANNELS 6 Xposition Yposition Zposition Xrotation Yrotation Zrotation
										JOINT LeftHandPinky3
										{
											OFFSET 1.974503 -0.000046 0.000000
											CHANNELS 6 Xposition Yposition Zposition Xrotation Yrotation Zrotation
											JOINT LeftHandPinky4
											{
												OFFSET 1.666618 -0.000061 0.000001
												CHANNELS 6 Xposition Yposition Zposition Xrotation Yrotation Zrotation
												End Site
												{
													OFFSET 0.000092 1.666611 0.000000
												}
											}
										}
									}
								}
							}
						}
					}
				}
				JOINT RightShoulder
				{
					OFFSET -7.000000 14.255219 0.000000
					CHANNELS 6 Xposition Yposition Zposition Xrotation Yrotation Zrotation
					JOINT RightArm
					{
						OFFSET -10.707274 0.000000 0.000000
						CHANNELS 6 Xposition Yposition Zposition Xrotation Yrotation Zrotation
						JOINT RightForeArm
						{
							OFFSET -27.305599 -0.001099 0.000000
							CHANNELS 6 Xposition Yposition Zposition Xrotation Yrotation Zrotation
							JOINT RightHand
							{
								OFFSET -26.696991 -0.001083 0.000000
								CHANNELS 6 Xposition Yposition Zposition Xrotation Yrotation Zrotation
								JOINT RightHandThumb1
								{
									OFFSET -4.348351 -0.798676 4.282815
									CHANNELS 6 Xposition Yposition Zposition Xrotation Yrotation Zrotation
									JOINT RightHandThumb2
									{
										OFFSET -2.512505 -0.536194 0.707677
										CHANNELS 6 Xposition Yposition Zposition Xrotation Yrotation Zrotation
										JOINT RightHandThumb3
										{
											OFFSET -2.541588 -0.000107 0.088820
											CHANNELS 6 Xposition Yposition Zposition Xrotation Yrotation Zrotation
											JOINT RightHandThumb4
											{
												OFFSET -2.665123 -0.000137 0.093137
												CHANNELS 6 Xposition Yposition Zposition Xrotation Yrotation Zrotation
												End Site
												{
													OFFSET -0.000153 2.666748 -0.000000
												}
											}
										}
									}
								}
								JOINT RightHandIndex1
								{
									OFFSET -8.821678 0.199371 3.472445
									CHANNELS 6 Xposition Yposition Zposition Xrotation Yrotation Zrotation
									JOINT RightHandIndex2
									{
										OFFSET -4.225319 -0.000168 0.000114
										CHANNELS 6 Xposition Yposition Zposition Xrotation Yrotation Zrotation
										JOINT RightHandIndex3
										{
											OFFSET -2.652321 -0.000107 0.092696
											CHANNELS 6 Xposition Yposition Zposition Xrotation Yrotation Zrotation
											JOINT RightHandIndex4
											{
												OFFSET -1.953445 -0.000076 0.136656
												CHANNELS 6 Xposition Yposition Zposition Xrotation Yrotation Zrotation
												End Site
												{
													OFFSET -0.000076 1.958221 0.000000
												}
											}
										}
									}
								}
								JOINT RightHandMiddle1
								{
									OFFSET -8.809784 0.500534 1.305458
									CHANNELS 6 Xposition Yposition Zposition Xrotation Yrotation Zrotation
									JOINT RightHandMiddle2
									{
										OFFSET -4.863251 -0.000198 0.000132
										CHANNELS 6 Xposition Yposition Zposition Xrotation Yrotation Zrotation
										JOINT RightHandMiddle3
										{
											OFFSET -2.763550 -0.000107 0.096583
											CHANNELS 6 Xposition Yposition Zposition Xrotation Yrotation Zrotation
											JOINT RightHandMiddle4
											{
												OFFSET -2.000740 -0.000076 0.139965
												CHANNELS 6 Xposition Yposition Zposition Xrotation Yrotation Zrotation
												End Site
												{
													OFFSET -0.000084 2.005630 0.000000
												}
											}
										}
									}
								}
								JOINT RightHandRing1
								{
									OFFSET -8.893845 0.379562 -0.792377
									CHANNELS 6 Xposition Yposition Zposition Xrotation Yrotation Zrotation
									JOINT RightHandRing2
									{
										OFFSET -4.537758 -0.000183 0.000123
										CHANNELS 6 Xposition Yposition Zposition Xrotation Yrotation Zrotation
										JOINT RightHandRing3
										{
											OFFSET -2.303123 -0.000092 0.080492
											CHANNELS 6 Xposition Yposition Zposition Xrotation Yrotation Zrotation
											JOINT RightHandRing4
											{
												OFFSET -1.918655 -0.000076 0.134222
												CHANNELS 6 Xposition Yposition Zposition Xrotation Yrotation Zrotation
												End Site
												{
													OFFSET -0.000076 1.923355 0.000000
												}
											}
										}
									}
								}
								JOINT RightHandPinky1
								{
									OFFSET -8.882484 -0.313385 -2.489574
									CHANNELS 6 Xposition Yposition Zposition Xrotation Yrotation Zrotation
									JOINT RightHandPinky2
									{
										OFFSET -3.047798 -0.000122 0.000083
										CHANNELS 6 Xposition Yposition Zposition Xrotation Yrotation Zrotation
										JOINT RightHandPinky3
										{
											OFFSET -1.975693 -0.000031 0.069049
											CHANNELS 6 Xposition Yposition Zposition Xrotation Yrotation Zrotation
											JOINT RightHandPinky4
											{
												OFFSET -1.664574 0.000000 0.116447
												CHANNELS 6 Xposition Yposition Zposition Xrotation Yrotation Zrotation
												End Site
												{
													OFFSET 0.000038 1.668640 -0.000008
												}
											}
										}
									}
								}
							}
						}
					}
				}
				JOINT Neck
				{
					OFFSET 0.000000 12.666672 0.000000
					CHANNELS 6 Xposition Yposition Zposition Xrotation Yrotation Zrotation
					JOINT Head
					{
						OFFSET 0.000000 10.000000 0.000000
						CHANNELS 3 Xrotation Yrotation Zrotation
						JOINT HeadEnd
						{
							OFFSET 0.000000 20.000000 0.000000
							CHANNELS 3 Xrotation Yrotation Zrotation
							End Site
							{
								OFFSET 0.000000 20.000000 0.000000
							}
						}
					}
				}
			}
		}
	}
}
MOTION
Frames: 3
Frame Time: 0.008333
-3.245807 99.455551 -13.088628 1.348381 156.236138 0.136748 8.910002 -6.270005 0.000001 5.468129 15.775806 1.942633 -0.000001 -44.878639 -0.000001 1.059440 0.000001 -0.000000 0.000003 -40.700958 -0.000001 -4.990537 4.434413 -4.143546 0.000012 -6.262318 12.954721 0.938096 -0.000000 0.000000 0.000000 -0.000000 7.999998 0.000000 0.000000 -0.000000 -8.910002 -6.269997 0.000001 2.030332 -2.720840 -2.477588 -0.000004 -44.878643 0.000439 6.676703 -0.000000 -0.000000 0.000003 -40.700970 -0.000001 -7.732979 -2.879271 2.898259 0.000001 -6.262317 12.954748 1.136232 -0.000005 -0.000095 0.000672 0.000000 7.999999 -0.000000 0.000001 0.000000 0.000000 7.000009 0.000001 -0.319662 1.984307 1.015663 2.698420 0.240721 0.283072 1.292125 0.281046 0.492143 7.000002 14.255222 -0.000001 -1.074319 -3.030686 -5.948877 10.707255 -0.000015 0.000003 5.604671 -24.502359 -54.443551 27.305473 -0.000362 0.000001 -0.000285 -21.068475 -0.000053 26.697140 -0.000333 -0.000007 9.214307 1.911838 -0.563830 4.348758 -0.798535 4.282433 3.253701 8.821255 1.030423 2.512581 -0.536150 0.707457 3.170301 8.591224 1.009806 2.543149 -0.000033 0.000007 0.000001 0.000008 0.000022 2.666754 -0.000007 -0.000010 0.000002 -0.000001 0.000001 8.821970 0.199620 3.471667 -1.015241 0.449602 -7.576294 4.225314 -0.000078 -0.000263 -1.007187 0.445400 -7.514249 2.652310 -0.000028 -0.092787 0.000005 -0.000001 0.000007 1.953445 -0.000017 -0.136719 0.000002 0.000000 0.000003 8.809894 0.500778 1.304686 -1.473896 0.687967 -13.237923 4.863264 -0.000075 -0.000000 -1.472662 0.687198 -13.225960 2.765229 -0.000019 -0.000167 0.000003 0.000002 0.000018 2.005639 -0.000031 -0.000253 0.000003 0.000001 -0.000000 8.893768 0.379807 -0.793161 -2.140567 1.047281 -13.118648 4.537775 -0.000064 -0.000282 -2.136991 1.044980 -13.095426 2.304518 -0.000042 -0.000288 -0.000002 0.000004 0.000003 1.923363 -0.000029 -0.000361 -0.000001 -0.000002 0.000000 8.882274 -0.313144 -2.490360 -3.557241 1.274716 -12.782430 3.044108 -0.000055 -0.000001 -3.544454 1.268474 -12.734514 1.974512 -0.000055 0.000002 0.000012 0.000001 0.000002 1.666615 -0.000060 0.000002 0.000003 0.000001 0.000001 -7.000000 14.255226 -0.000000 0.388797 1.957638 4.973450 -10.707278 0.000007 0.000006 2.070064 23.911051 53.171079 -27.305609 -0.001090 0.000001 -0.000812 19.359012 0.000136 -26.696976 -0.001097 -0.000001 8.842126 -4.217674 -0.851506 -4.348343 -0.798673 4.282817 16.275777 -4.677260 -8.210251 -2.512511 -0.536196 0.707675 1.614745 -4.297676 -0.561436 -2.541580 -0.000109 0.088819 -0.000003 0.000000 -0.000000 -2.665124 -0.000142 0.093138 -0.000003 -0.000002 -0.000003 -8.821667 0.199381 3.472443 -1.163926 -0.595825 8.513595 -4.225312 -0.000159 0.000114 -1.157748 -0.592106 8.466361 -2.652321 -0.000093 0.092698 0.000003 0.000005 -0.000009 -1.953448 -0.000064 0.136654 -0.000002 -0.000000 0.000001 -8.809777 0.500551 1.305458 -1.508046 -0.782942 12.797016 -4.863249 -0.000197 0.000128 -1.506910 -0.782206 12.786377 -2.763548 -0.000093 0.096580 0.000005 -0.000009 -0.000018 -2.000743 -0.000075 0.139967 -0.000000 -0.000000 -0.000002 -8.893828 0.379535 -0.792377 -2.108082 -1.158759 12.682924 -4.537768 -0.000168 0.000125 -2.103398 -1.155507 12.652850 -2.303128 -0.000078 0.080490 0.000002 -0.000002 -0.000007 -1.918651 -0.000094 0.134219 -0.000000 0.000001 0.000001 -8.882480 -0.313395 -2.489575 -4.586402 -2.130034 16.069777 -3.047776 -0.000128 0.000089 -4.564034 -2.115631 15.985819 -1.975703 -0.000027 0.069053 -0.000005 -0.000013 -0.000004 -1.664581 0.000015 0.116445 -0.000001 0.000000 -0.000000 0.000001 12.666676 -0.000002 7.385506 -8.080927 1.993968 -0.901632 -7.768338 -2.165596 0.000000 -0.000000 -0.000000 
-3.304746 99.453781 -13.057847 1.401044 178.760708 0.402494 8.910000 -6.269985 0.000001 6.565823 18.959511 2.131497 0.000001 -44.878662 -0.000002 1.283169 0.000002 -0.000000 0.000000 -40.700954 0.000001 -5.975058 5.375854 -4.892782 0.000008 -6.262317 12.954719 1.126109 -0.000001 -0.000000 -0.000000 0.000000 7.999998 0.000000 0.000001 -0.000000 -8.910001 -6.269983 0.000001 2.413157 -3.256338 -2.994144 -0.000001 -44.878662 0.000440 8.041461 0.000000 0.000000 0.000001 -40.700958 -0.000001 -9.254558 -3.470205 3.456680 0.000002 -6.262316 12.954749 1.360792 -0.000002 -0.000114 0.000671 -0.000000 7.999999 -0.000000 -0.000000 0.000000 -0.000000 7.000016 -0.000000 -0.331020 2.391541 1.227420 3.212578 0.308748 0.311185 1.532813 0.335169 0.582815 6.999999 14.255217 0.000001 -1.444066 -3.683278 -7.100780 10.707261 0.000032 0.000004 3.770705 -29.283531 -65.590867 27.305462 -0.000355 -0.000005 -0.000347 -25.393991 -0.000077 26.697178 -0.000332 -0.000002 11.038182 2.267452 -0.701316 4.348731 -0.798542 4.282434 3.893438 10.589731 1.178023 2.512586 -0.536129 0.707460 3.793615 10.313585 1.156262 2.543161 -0.000039 0.000010 -0.000000 0.000010 0.000023 2.666758 -0.000013 -0.000008 -0.000001 0.000001 -0.000001 8.821969 0.199614 3.471673 -1.210531 0.555329 -9.089502 4.225310 -0.000072 -0.000257 -1.201002 0.550032 -9.015093 2.652311 -0.000020 -0.092782 -0.000004 0.000002 0.000007 1.953426 -0.000025 -0.136723 0.000007 -0.000001 0.000002 8.809891 0.500777 1.304686 -1.746859 0.864944 -15.877664 4.863257 -0.000071 0.000000 -1.745422 0.863952 -15.863316 2.765233 -0.000030 -0.000176 -0.000003 -0.000001 0.000019 2.005611 -0.000031 -0.000250 -0.000001 -0.000003 -0.000001 8.893752 0.379813 -0.793156 -2.536034 1.313318 -15.732075 4.537777 -0.000046 -0.000280 -2.531882 1.310364 -15.704261 2.304538 -0.000026 -0.000290 -0.000002 0.000009 0.000004 1.923363 -0.000030 -0.000357 -0.000004 -0.000001 -0.000000 8.882260 -0.313160 -2.490353 -4.228430 1.622096 -15.323400 3.044113 -0.000037 -0.000001 -4.213440 1.613938 -15.266043 1.974503 -0.000053 0.000006 0.000005 0.000001 0.000006 1.666619 -0.000065 -0.000000 -0.000001 -0.000000 -0.000000 -6.999998 14.255240 0.000001 0.377877 2.382742 5.968466 -10.707276 -0.000013 0.000004 -0.255325 28.249960 64.265830 -27.305605 -0.001087 -0.000003 -0.000990 23.234420 0.000202 -26.697002 -0.001081 0.000001 10.583253 -5.081513 -0.954791 -4.348346 -0.798683 4.282819 19.441493 -5.873565 -9.674737 -2.512497 -0.536186 0.707679 1.933594 -5.158780 -0.659452 -2.541587 -0.000118 0.088821 -0.000003 0.000002 0.000002 -2.665126 -0.000134 0.093140 0.000002 -0.000000 0.000004 -8.821704 0.199382 3.472444 -1.385190 -0.735231 10.213345 -4.225318 -0.000163 0.000113 -1.377909 -0.730549 10.156700 -2.652329 -0.000091 0.092701 0.000003 0.000009 -0.000009 -1.953451 -0.000064 0.136656 0.000001 -0.000002 -0.000001 -8.809799 0.500544 1.305457 -1.786061 -0.978390 15.348820 -4.863242 -0.000209 0.000131 -1.784739 -0.977445 15.336070 -2.763546 -0.000102 0.096580 0.000008 -0.000011 -0.000021 -2.000749 -0.000073 0.139964 -0.000002 -0.000002 -0.000002 -8.893860 0.379569 -0.792375 -2.495385 -1.444223 15.209452 -4.537744 -0.000160 0.000121 -2.489946 -1.440083 15.173412 -2.303127 -0.000082 0.080489 0.000003 -0.000004 -0.000007 -1.918640 -0.000093 0.134217 -0.000000 -0.000001 -0.000003 -8.882490 -0.313373 -2.489573 -5.419945 -2.703022 19.252375 -3.047807 -0.000118 0.000086 -5.394136 -2.684312 19.152014 -1.975712 -0.000018 0.069052 -0.000010 -0.000013 -0.000003 -1.664571 -0.000024 0.116444 0.000000 0.000001 0.000002 0.000001 12.666680 -0.000001 8.962818 -9.314001 2.589278 -1.156393 -9.635257 -2.691390 0.000001 -0.000001 -0.000000 
-3.456218 99.458778 -12.963430 1.514189 178.644199 0.383052 8.910001 -6.270008 0.000001 6.664512 18.964271 2.048000 0.000002 -44.878643 -0.000002 1.305685 0.000000 -0.000000 0.000000 -40.700962 -0.000002 -6.024988 5.448488 -4.753599 0.000010 -6.262316 12.954720 1.119759 0.000002 -0.000000 0.000001 0.000000 7.999997 0.000000 0.000001 0.000000 -8.910001 -6.269996 0.000001 2.508529 -3.228010 -3.099085 -0.000001 -44.878632 0.000439 7.916453 0.000000 0.000000 0.000003 -40.700962 -0.000001 -9.116997 -3.377303 3.550712 0.000003 -6.262317 12.954752 1.383699 -0.000001 -0.000116 0.000671 -0.000000 7.999999 0.000000 0.000002 -0.000000 -0.000000 6.999991 0.000002 -0.048185 2.355173 1.241810 3.038156 0.296719 0.244158 1.544750 0.303934 0.561026 7.000002 14.255233 0.000002 -1.797429 -3.935260 -7.034092 10.707259 0.000038 -0.000004 4.037777 -29.509672 -64.791338 27.305445 -0.000355 0.000000 -0.000356 -25.928213 -0.000084 26.697149 -0.000333 0.000001 11.025118 2.223855 -0.714537 4.348747 -0.798531 4.282434 3.893439 10.589727 1.178020 2.512575 -0.536105 0.707456 3.793612 10.313587 1.156266 2.543138 -0.000018 0.000011 -0.000001 0.000007 0.000014 2.666744 0.000004 -0.000006 -0.000000 -0.000001 0.000001 8.821975 0.199614 3.471666 -1.210529 0.555332 -9.089500 4.225298 -0.000062 -0.000255 -1.201004 0.550036 -9.015092 2.652303 -0.000011 -0.092789 0.000004 -0.000001 0.000013 1.953438 -0.000017 -0.136719 0.000003 -0.000001 -0.000000 8.809898 0.500790 1.304682 -1.746858 0.864942 -15.877661 4.863259 -0.000056 0.000005 -1.745423 0.863958 -15.863323 2.765249 -0.000030 -0.000168 0.000002 -0.000005 0.000019 2.005631 -0.000030 -0.000251 -0.000004 0.000002 -0.000000 8.893760 0.379808 -0.793160 -2.536034 1.313319 -15.732074 4.537755 -0.000037 -0.000278 -2.531877 1.310365 -15.704260 2.304522 -0.000045 -0.000285 0.000002 0.000005 0.000002 1.923353 -0.000027 -0.000359 0.000002 -0.000000 0.000001 8.882276 -0.313140 -2.490354 -4.228428 1.622094 -15.323403 3.044101 -0.000038 0.000000 -4.213437 1.613941 -15.266045 1.974519 -0.000055 -0.000002 0.000002 -0.000001 0.000003 1.666620 -0.000060 0.000000 0.000001 0.000000 -0.000000 -7.000000 14.255216 0.000001 0.159102 2.658448 5.974976 -10.707275 0.000017 0.000006 -0.261852 28.337478 64.057988 -27.305578 -0.001089 0.000000 -0.000988 23.121879 0.000200 -26.696991 -0.001085 -0.000001 10.539890 -5.047809 -0.947009 -4.348362 -0.798668 4.282813 19.441497 -5.873568 -9.674739 -2.512510 -0.536185 0.707671 1.933596 -5.158771 -0.659454 -2.541592 -0.000120 0.088818 -0.000004 0.000003 0.000005 -2.665122 -0.000150 0.093139 0.000000 0.000000 0.000002 -8.821700 0.199369 3.472446 -1.385190 -0.735227 10.213341 -4.225339 -0.000154 0.000112 -1.377909 -0.730550 10.156707 -2.652327 -0.000096 0.092701 -0.000003 0.000006 -0.000004 -1.953451 -0.000058 0.136664 -0.000003 0.000000 -0.000004 -8.809799 0.500538 1.305458 -1.786063 -0.978388 15.348825 -4.863234 -0.000209 0.000125 -1.784737 -0.977445 15.336076 -2.763553 -0.000096 0.096582 0.000008 -0.000016 -0.000024 -2.000769 -0.000073 0.139965 0.000001 -0.000003 -0.000003 -8.893846 0.379554 -0.792377 -2.495386 -1.444219 15.209453 -4.537760 -0.000174 0.000126 -2.489941 -1.440081 15.173410 -2.303117 -0.000082 0.080488 0.000006 -0.000004 -0.000011 -1.918659 -0.000091 0.134229 -0.000001 0.000003 0.000001 -8.882500 -0.313373 -2.489572 -5.419943 -2.703017 19.252369 -3.047785 -0.000128 0.000085 -5.394145 -2.684308 19.152016 -1.975717 -0.000017 0.069046 -0.000015 -0.000012 -0.000001 -1.664577 0.000001 0.116448 0.000002 -0.000002 -0.000002 0.000000 12.666665 0.000001 9.031130 -9.339444 2.445796 -1.207299 -9.417344 -2.643385 -0.000000 0.000001 -0.000000 
